PathFileType	4	(X/Y/Z)	/Users/niels/Desktop/University/Third Semester/Perception and Action/Exam/Gymnastics Motion Tracking/Code for Gym Tracking/Analyzed Data/Webcam_Backflip/id4_5_pure_Sports2D/id4_5_pure_Sports2D_px_person00.trc
DataRate	CameraRate	NumFrames	NumMarkers	Units	OrigDataRate	OrigDataStartFrame	OrigNumFrames
29.81132075471698	29.81132075471698	10	22	m	29.81132075471698	79	159
Frame#	Time	Hip			RHip			RKnee			RAnkle			RBigToe			RSmallToe			RHeel			LHip			LKnee			LAnkle			LBigToe			LSmallToe			LHeel			Neck			Head			Nose			RShoulder			RElbow			RWrist			LShoulder			LElbow			LWrist		
		X1	Y1	Z1	X2	Y2	Z2	X3	Y3	Z3	X4	Y4	Z4	X5	Y5	Z5	X6	Y6	Z6	X7	Y7	Z7	X8	Y8	Z8	X9	Y9	Z9	X10	Y10	Z10	X11	Y11	Z11	X12	Y12	Z12	X13	Y13	Z13	X14	Y14	Z14	X15	Y15	Z15	X16	Y16	Z16	X17	Y17	Z17	X18	Y18	Z18	X19	Y19	Z19	X20	Y20	Z20	X21	Y21	Z21	X22	Y22	Z22
79	2.65	0.7818968202949497	-0.3709476774747953	0.0	0.7762335302770125	-0.3704101638474395	0.0	0.8427355611510399	-0.4685880025023486	0.0	0.8351062379014119	-0.5806493391189336	0.0	0.8820824176509027	-0.6012932984490252	0.0	0.8701054978243296	-0.6057199955604465	0.0	0.825507675081916	-0.5970347795898956	0.0	0.7909096811226267	-0.3705092669542666	0.0	0.8429772327064362	-0.4693986565995649	0.0	0.8483434580219344	-0.5805032040306346	0.0	0.8940930867299333	-0.6001239277836563	0.0	0.8890192552208455	-0.5954996581668287	0.0	0.8429695796880573	-0.5958225066691563	0.0	0.8123882922318983	-0.23392094190661078	0.0	0.8561882666117367	-0.1689636918919836	0.0	0.8492576379428122	-0.2077229886812909	0.0	0.7975374329982545	-0.23889276188369327	0.0	0.8128575770875732	-0.1853748928468297	0.0	0.8404659363777542	-0.13080246970451637	0.0	0.824715141266019	-0.2424077233967188	0.0	0.8675653408006497	-0.2286178157862808	0.0	0.9131635720523762	-0.19487342382855527	0.0
80	2.6835443037974684	0.7758489999106123	-0.3667945939514901	0.0	0.7703683272916348	-0.36643972146235887	0.0	0.8346855094413371	-0.46587878301168045	0.0	0.8170476046317371	-0.5767064026550848	0.0	0.8606581479149737	-0.6017773375893937	0.0	0.849146398043405	-0.6047961614614004	0.0	0.8066484636587655	-0.5918423149879272	0.0	0.7848403823993839	-0.36652484288549997	0.0	0.8389960712063547	-0.4650523626573637	0.0	0.844180050619173	-0.5755736210224229	0.0	0.8889746883990495	-0.5965221875307964	0.0	0.8840480144687045	-0.591922374334224	0.0	0.8383583061702249	-0.5906617181592334	0.0	0.8058273903681156	-0.22845293035858563	0.0	0.8462440382567	-0.1644340423221268	0.0	0.841289076278721	-0.2020968969019267	0.0	0.7928595640502251	-0.23351265712479177	0.0	0.8098830053056327	-0.17984573106226265	0.0	0.8347605713914985	-0.12414738221794426	0.0	0.8166087795721306	-0.23670690188121635	0.0	0.8584127765030966	-0.22040166165679348	0.0	0.9031861341600889	-0.18755601985408799	0.0
81	2.7170886075949365	0.7703747809529441	-0.36621354687823593	0.0	0.7648119177551984	-0.36596813446014265	0.0	0.8243926970367946	-0.467898539394963	0.0	0.796021561582434	-0.5770942860977386	0.0	0.8348198949210844	-0.6072598970468595	0.0	0.8239742550927597	-0.608530408577927	0.0	0.7848397696468197	-0.5905273154591623	0.0	0.7794914749783878	-0.3659869239411597	0.0	0.8366019338765622	-0.463574916050916	0.0	0.8426537636723042	-0.5733405808472211	0.0	0.8863556985854885	-0.5954607942806178	0.0	0.8818301069200375	-0.590992826892318	0.0	0.8364502273647437	-0.5882099642379244	0.0	0.7989720801322231	-0.22591317311488782	0.0	0.8351324680616807	-0.16243312321494116	0.0	0.8329714452837772	-0.19925296756435865	0.0	0.7881158437505652	-0.23125569790819567	0.0	0.8084758032451893	-0.17761549755270895	0.0	0.8304691256507419	-0.1213642928131855	0.0	0.8078241355798298	-0.23400778296812985	0.0	0.8483715590103352	-0.21501444148119947	0.0	0.8919501999673624	-0.1831454340744884	0.0
82	2.750632911392405	0.7652958624941352	-0.3691236538296566	0.0	0.7594174543201678	-0.3689128699821867	0.0	0.8117114762925278	-0.47441639490850845	0.0	0.7737278701834236	-0.5818108374496976	0.0	0.8065241521563966	-0.6171312281055865	0.0	0.7964650805321386	-0.6165617474978876	0.0	0.7619423498277801	-0.5933427980568204	0.0	0.7748422132554915	-0.3688102063674999	0.0	0.8357561117651319	-0.4645112046721665	0.0	0.8426992598395446	-0.5736239929801358	0.0	0.8850303281387876	-0.5968894573456115	0.0	0.8812663692865713	-0.5926420541363009	0.0	0.8359373359917807	-0.5883272552082688	0.0	0.7920711000812338	-0.22645793209001833	0.0	0.824013770234555	-0.1629111764397936	0.0	0.8247237791768024	-0.19933373574825416	0.0	0.7831350352605102	-0.23236314543517864	0.0	0.8076871545773188	-0.17933139397400652	0.0	0.8274887796116203	-0.12315781946040286	0.0	0.7987172204115541	-0.234521827496873	0.0	0.8382983425578284	-0.2126117850076968	0.0	0.8799861901000263	-0.18144808889775477	0.0
83	2.784177215189873	0.7604868793703103	-0.37550883109101024	0.0	0.7541236230416896	-0.3753060746441609	0.0	0.7970484789091437	-0.4849917499776651	0.0	0.7523152648890611	-0.59083336506671	0.0	0.7787290747371624	-0.6306291501597983	0.0	0.7693475415960241	-0.6284679582225153	0.0	0.7402430515020787	-0.6006692196689405	0.0	0.7707122051186186	-0.3750256127923378	0.0	0.8358263048697063	-0.46799445306690424	0.0	0.8424759969555276	-0.5767392041023329	0.0	0.8827637174090313	-0.601398470330557	0.0	0.8802622224731756	-0.5973748634822674	0.0	0.8347828593704152	-0.5914050064947723	0.0	0.7852355866034622	-0.23034671706624674	0.0	0.8138527683577511	-0.16607053942730057	0.0	0.8167621020156625	-0.20254224003346935	0.0	0.7777503305446015	-0.2371611106173905	0.0	0.806443854087981	-0.18560930955062185	0.0	0.8254702691861169	-0.13011427556316832	0.0	0.7895241750225462	-0.23848984614976604	0.0	0.8287191470821135	-0.21347853098869135	0.0	0.8677705477672127	-0.18218043670110837	0.0
84	2.8177215189873417	0.7558525061756064	-0.38544822133204903	0.0	0.7489006737984086	-0.38531464191789483	0.0	0.7814039552618465	-0.4990779701371904	0.0	0.7336332364260748	-0.6040854157089919	0.0	0.7545399030687893	-0.6469583684359396	0.0	0.7454540041649557	-0.6437398665141967	0.0	0.7216194450401348	-0.6128272951749915	0.0	0.7667831516422344	-0.38482188751882	0.0	0.835767082209744	-0.47481147938739826	0.0	0.840187346302098	-0.5834289589757243	0.0	0.8774188316824383	-0.6098305325394247	0.0	0.876694924443014	-0.6059541345812435	0.0	0.8312275394532607	-0.598215071249722	0.0	0.7784548718069967	-0.23794603388835872	0.0	0.8052258399961012	-0.1723993589475655	0.0	0.8091424480098396	-0.20927694466023544	0.0	0.771865024024404	-0.245978597352485	0.0	0.8039733236223989	-0.1966037477973548	0.0	0.823899925110713	-0.14233859256780879	0.0	0.7803806425865878	-0.24623979008784982	0.0	0.8197149289538069	-0.2178976963747335	0.0	0.8556966970642095	-0.1850550348018606	0.0
85	2.85126582278481	0.7512927101048803	-0.3991315347197172	0.0	0.7437102774384123	-0.39922464187112444	0.0	0.7660554108695621	-0.5162742697399982	0.0	0.7187372901647313	-0.6213894423250215	0.0	0.7362141489125897	-0.6654382348489598	0.0	0.7269163153142835	-0.6617945530340557	0.0	0.7070065216935932	-0.6299110903187652	0.0	0.7627898643020848	-0.3985376990799723	0.0	0.8345316833449888	-0.4860171271150206	0.0	0.834528417055907	-0.5944299174267847	0.0	0.8676660184282562	-0.6228384572775538	0.0	0.8690534139339501	-0.6189895023968962	0.0	0.8241663171597033	-0.6094801255140777	0.0	0.7717243978258101	-0.24980656310787988	0.0	0.798262765782142	-0.18269036598533134	0.0	0.8019027858994868	-0.22025253939068332	0.0	0.7655239044941108	-0.25913340855007005	0.0	0.7999385064561757	-0.21172181127307907	0.0	0.8220614593045932	-0.15911697673813838	0.0	0.7714472847332112	-0.25824253720550255	0.0	0.8110731167181687	-0.22610039429071324	0.0	0.8439850137394087	-0.19018645956427674	0.0
86	2.8848101265822783	0.7467453300247437	-0.4168494502836829	0.0	0.7385536243441463	-0.417345752232011	0.0	0.7521488389832736	-0.5364642861113991	0.0	0.7077805675982446	-0.6424578533608826	0.0	0.7243226124820886	-0.6856721444695315	0.0	0.7144114034145083	-0.6821240000281685	0.0	0.6963869111082382	-0.6516742714747462	0.0	0.7587047001898857	-0.41653360113477916	0.0	0.8313837423205825	-0.5024545333699113	0.0	0.8248736092159391	-0.6100679697556719	0.0	0.8531171749459844	-0.6406206968247118	0.0	0.8566460015302614	-0.6366540777819356	0.0	0.8132147098640454	-0.6254677688414313	0.0	0.7651161262681436	-0.2664845822757478	0.0	0.7924784418260156	-0.19774281786038436	0.0	0.7950542284241023	-0.2361898784125908	0.0	0.7589159336004292	-0.2768027737863195	0.0	0.7943599244679562	-0.22983949654095961	0.0	0.8190872341631431	-0.17906719185762526	0.0	0.7630222683046843	-0.27490773137391433	0.0	0.8025318812190881	-0.23837106956147822	0.0	0.832631193958894	-0.19839826961522003	0.0
87	2.918354430379747	0.7422366152511084	-0.4389120691463269	0.0	0.7334656010429281	-0.43986698553390646	0.0	0.740460002961015	-0.5597049229047785	0.0	0.7001790359851408	-0.6668856037785081	0.0	0.7176146251159233	-0.7075864500336476	0.0	0.7069730196215357	-0.7044273544935545	0.0	0.689105515762417	-0.6774678113285093	0.0	0.7547107172591855	-0.4390115621848197	0.0	0.825999598977651	-0.5245042937955681	0.0	0.8113465096453574	-0.6301869922130721	0.0	0.8342021021382372	-0.6628325918664152	0.0	0.8396010836435014	-0.6585765211196227	0.0	0.798686610434778	-0.6458544303225633	0.0	0.7587371559104227	-0.2882120096769436	0.0	0.7868568829773479	-0.21794026600560398	0.0	0.7884671760229951	-0.25735543076352413	0.0	0.7522669568072086	-0.298921019624482	0.0	0.7874934665349753	-0.25010752158139865	0.0	0.8142592422207211	-0.20084573344187587	0.0	0.7554877284207081	-0.29632099478981355	0.0	0.7939351544306535	-0.25496277481884416	0.0	0.8215492297256727	-0.21086313882673963	0.0
88	2.951898734177215	0.7378452877732773	-0.4654586656840887	0.0	0.728451144263506	-0.4667392993823232	0.0	0.7313332429320493	-0.5860258923606981	0.0	0.6949092317195198	-0.6940833961465667	0.0	0.7139169840644475	-0.7311659190674632	0.0	0.7027904244763477	-0.7285137220336825	0.0	0.6841808428789968	-0.7062341935484638	0.0	0.7509800501195695	-0.4658946993479718	0.0	0.8184338707407193	-0.5519965281363186	0.0	0.7947282708541769	-0.6542676564636618	0.0	0.8120675660133391	-0.6887072099957114	0.0	0.81883387343008	-0.6839715634146248	0.0	0.7814842214639216	-0.6698502091169694	0.0	0.7526172924629958	-0.3148060493992535	0.0	0.7803758791567731	-0.2431590895104494	0.0	0.7818392927799099	-0.28349835866303	0.0	0.7457177781498785	-0.3252528442549102	0.0	0.779703766654495	-0.2725367846484408	0.0	0.8073038667886062	-0.2238227681672365	0.0	0.749055032122336	-0.3222398614933311	0.0	0.7852922877284191	-0.27584084080669785	0.0	0.8107956040732863	-0.22832989556162636	0.0
